<?xml version="1.0"?>
<svg fill="#d3b862" xmlns="http://www.w3.org/2000/svg" id="outline" viewBox="0 0 512 512" width="512" height="512"><path d="M472,40H40A24.0275,24.0275,0,0,0,16,64V336a24.0275,24.0275,0,0,0,24,24H200v56H160a7.99977,7.99977,0,0,0-8,8v32a7.99977,7.99977,0,0,0,8,8h12.68652l5.65674,5.65674A7.99877,7.99877,0,0,0,184,472h24a7.99877,7.99877,0,0,0,5.65674-2.34326L219.31348,464h73.373l5.65674,5.65674A7.99877,7.99877,0,0,0,304,472h24a7.99877,7.99877,0,0,0,5.65674-2.34326L339.31348,464H352a7.99977,7.99977,0,0,0,8-8V424a7.99977,7.99977,0,0,0-8-8H312V360H472a24.0275,24.0275,0,0,0,24-24V64A24.0275,24.0275,0,0,0,472,40ZM40,56H472a8.00917,8.00917,0,0,1,8,8V88H32V64A8.00917,8.00917,0,0,1,40,56ZM344,448H168V432H344Zm-48-32H216V360h32v32a8,8,0,0,0,16,0V360h32Zm176-72H40a8.00917,8.00917,0,0,1-8-8V104H480V336A8.00917,8.00917,0,0,1,472,344Z"/><path d="M322.52344,268.4502l-13.2959-8.9004a64.00723,64.00723,0,0,1-117.0918-31.35888L208,217.61475l16.314,10.876a32.00266,32.00266,0,0,0,53.022,19.35889L266.665,235.92773A16.00047,16.00047,0,0,1,240,224a7.99943,7.99943,0,0,0-3.5625-6.65625l-24-16a7.99771,7.99771,0,0,0-8.875,0l-24,16A7.99943,7.99943,0,0,0,176,224a80.00582,80.00582,0,0,0,146.52344,44.4502Z"/><path d="M189.47656,179.5498l13.2959,8.9004a64.00723,64.00723,0,0,1,117.0918,31.35888L304,230.38525l-16.314-10.876a32.00266,32.00266,0,0,0-53.022-19.35889l10.6709,11.92188A16.00047,16.00047,0,0,1,272,224a7.99943,7.99943,0,0,0,3.5625,6.65625l24,16a7.99891,7.99891,0,0,0,8.875,0l24-16A7.99943,7.99943,0,0,0,336,224a80.00582,80.00582,0,0,0-146.52344-44.4502Z"/><path d="M194.6582,150.15039l-10.23047-12.30176A111.75168,111.75168,0,0,0,144,224h16A95.79563,95.79563,0,0,1,194.6582,150.15039Z"/><path d="M219.01465,135.38135l-6.16992-14.7627a112.03093,112.03093,0,0,0-16.5669,8.61719l8.543,13.52832A95.98913,95.98913,0,0,1,219.01465,135.38135Z"/><path d="M317.3418,297.84961l10.23047,12.30176A111.75168,111.75168,0,0,0,368,224H352A95.79563,95.79563,0,0,1,317.3418,297.84961Z"/><path d="M292.98535,312.61865l6.16992,14.7627a112.03093,112.03093,0,0,0,16.5669-8.61719l-8.543-13.52832A95.98913,95.98913,0,0,1,292.98535,312.61865Z"/><circle cx="48" cy="72" r="8"/><circle cx="72" cy="72" r="8"/><circle cx="96" cy="72" r="8"/></svg>
